<svg viewBox="0 0 400 400" xmlns="http://www.w3.org/2000/svg"><g transform="translate(-490.87) scale(.99187)"><path fill="none" d="M494.892 0h403.28v403.28h-403.28z"/><clipPath id="a"><path d="M494.892 0h403.28v403.28h-403.28z"/></clipPath><g clip-path="url(#a)"><g transform="translate(494.827 -.066) scale(1.00032)"><path fill="#3200e5" d="M403.23 88.693C403.23 39.742 363.488 0 314.537 0H88.773C39.822 0 .08 39.742.08 88.693v225.764c0 48.951 39.742 88.693 88.693 88.693h225.764c48.951 0 88.693-39.742 88.693-88.693V88.693z"/><clipPath id="b"><path d="M403.23 88.693C403.23 39.742 363.488 0 314.537 0H88.773C39.822 0 .08 39.742.08 88.693v225.764c0 48.951 39.742 88.693 88.693 88.693h225.764c48.951 0 88.693-39.742 88.693-88.693V88.693z"/></clipPath><g clip-path="url(#b)"><path fill="url(#_Linear3)" d="M1376.72 4870.06h400.015v400.065H1376.72z" transform="rotate(90 3349.6 1962.07) scale(1.00787)"/></g></g><path fill="#fff" d="M720.537 322.624h-98.545c-5.335 0-10.357-2.197-14.123-5.963s-5.963-8.787-5.963-14.123V100.741c0-10.984 9.101-20.085 20.086-20.085h129.3c10.985 0 20.086 9.1 20.086 20.085v19.772c0 3.452-.941 6.904-2.51 10.043-5.336 9.101-16.634 28.873-16.634 28.873 31.384 12.553 53.039 42.682 53.039 78.459 0 46.762-37.975 84.736-84.736 84.736z"/><path fill="#8576de" d="M727.755 202.424l-40.799 71.87h33.58c20.086 0 36.406-16.32 36.406-36.406 0-17.575-12.554-32.011-29.187-35.464zm-55.235-.627h-22.283v39.23l22.283-39.23zm-19.145-72.81c-.941 0-1.569.313-2.196.941-.628.628-.942 1.255-.942 2.197v21.027h49.9l13.809-24.165h-60.57z"/></g></g><defs><linearGradient id="_Linear3" x1="0" x2="1" y1="0" y2="0" gradientTransform="matrix(400.015 0 0 400.065 1376.72 5070.09)" gradientUnits="userSpaceOnUse"><stop offset="0" stop-color="#fff" stop-opacity=".1"/><stop offset="1" stop-opacity=".21"/></linearGradient></defs></svg>